# xmcd
#
# Track frame offsets: 
#        150
#        28292
#        64832
#        89830
#        98570
#        113315
#        129030
#        151152
#        170930
#        184150
#        197795
#        218632
#        240545
#        255232
#        269597
#        304780
#
# Disc length: 4277 seconds
#
# Revision: 0
# Processed by: cddbd v1.5.2PL0 Copyright (c) Steve Scherf et al.
# Submitted via: ExactAudioCopy v0.99pb3
#
DISCID=d810b310
DTITLE=Various Artist - POUR CEUX QUI AIMENT LE jazz CD1 (Made in Germany by 
DTITLE=Warner Music Europe)
DYEAR=2002
DGENRE=Acid Jazz
TTITLE0=ART BLAKEY and THE JAZZ MESSENGERS__BLUES MARCH
TTITLE1=ELLA FITZGERALD__MACK THE kNIFE
TTITLE2=COUNT BASIE__LIL'DARLIN
TTITLE3=HERBIE MANN and JOAO GILBERTO__DESAFINADO
TTITLE4=ERROLL GARNER__SUMMERTIME
TTITLE5=LOUIS ARMONSTRONG__SOMETIMES I fEEL LIKE A MOTHERLESS CHILD
TTITLE6=LIONEL HAMPTON__FLYING HOME
TTITLE7=JOHN COLTRANE__NAIMA
TTITLE8=JOHN LEE HOOKER__BOOGIE CHILLUN
TTITLE9=CANNONBALL ADDERLEY__THIS HERE
TTITLE10=THE MODERN JAZZ QUARTET__DJANGO
TTITLE11=KING CURTIS__HONKY TONK
TTITLE12=DJANGO REINHARDT and STEPHANE GRAPPELLI__MINOR SWING
TTITLE13=BILLIE HOLIDAY__LOVER MAN
TTITLE14=CLIFFORD BROWN and MAX ROACH__JORDU
TTITLE15=JIMMY GIUFFRE__THE TRAIN AND THE RIVER
EXTD=
EXTT0=
EXTT1=
EXTT2=
EXTT3=
EXTT4=
EXTT5=
EXTT6=
EXTT7=
EXTT8=
EXTT9=
EXTT10=
EXTT11=
EXTT12=
EXTT13=
EXTT14=
EXTT15=
PLAYORDER=
